<svg id="visual" viewBox="0 0 960 540" width="960" height="540" xmlns="http://www.w3.org/2000/svg" xmlns:xlink="http://www.w3.org/1999/xlink" version="1.1"><rect x="0" y="0" width="960" height="540" fill="#020617"></rect><defs><linearGradient id="grad1_0" x1="43.8%" y1="0%" x2="100%" y2="100%"><stop offset="14.444444444444446%" stop-color="#facc15" stop-opacity="1"></stop><stop offset="85.55555555555554%" stop-color="#facc15" stop-opacity="1"></stop></linearGradient></defs><defs><linearGradient id="grad1_1" x1="43.8%" y1="0%" x2="100%" y2="100%"><stop offset="14.444444444444446%" stop-color="#facc15" stop-opacity="1"></stop><stop offset="85.55555555555554%" stop-color="#dd6052" stop-opacity="1"></stop></linearGradient></defs><defs><linearGradient id="grad1_2" x1="43.8%" y1="0%" x2="100%" y2="100%"><stop offset="14.444444444444446%" stop-color="#6a3058" stop-opacity="1"></stop><stop offset="85.55555555555554%" stop-color="#dd6052" stop-opacity="1"></stop></linearGradient></defs><defs><linearGradient id="grad1_3" x1="43.8%" y1="0%" x2="100%" y2="100%"><stop offset="14.444444444444446%" stop-color="#6a3058" stop-opacity="1"></stop><stop offset="85.55555555555554%" stop-color="#020617" stop-opacity="1"></stop></linearGradient></defs><defs><linearGradient id="grad2_0" x1="0%" y1="0%" x2="56.3%" y2="100%"><stop offset="14.444444444444446%" stop-color="#facc15" stop-opacity="1"></stop><stop offset="85.55555555555554%" stop-color="#facc15" stop-opacity="1"></stop></linearGradient></defs><defs><linearGradient id="grad2_1" x1="0%" y1="0%" x2="56.3%" y2="100%"><stop offset="14.444444444444446%" stop-color="#dd6052" stop-opacity="1"></stop><stop offset="85.55555555555554%" stop-color="#facc15" stop-opacity="1"></stop></linearGradient></defs><defs><linearGradient id="grad2_2" x1="0%" y1="0%" x2="56.3%" y2="100%"><stop offset="14.444444444444446%" stop-color="#dd6052" stop-opacity="1"></stop><stop offset="85.55555555555554%" stop-color="#6a3058" stop-opacity="1"></stop></linearGradient></defs><defs><linearGradient id="grad2_3" x1="0%" y1="0%" x2="56.3%" y2="100%"><stop offset="14.444444444444446%" stop-color="#020617" stop-opacity="1"></stop><stop offset="85.55555555555554%" stop-color="#6a3058" stop-opacity="1"></stop></linearGradient></defs><g transform="translate(960, 0)"><path d="M0 297C-54.6 290.8 -109.2 284.6 -148.5 257.2C-187.8 229.9 -211.6 181.4 -233.8 135C-256 88.6 -276.5 44.3 -297 0L0 0Z" fill="#2f213e"></path><path d="M0 222.8C-41 218.1 -81.9 213.4 -111.4 192.9C-140.8 172.4 -158.7 136 -175.4 101.3C-192 66.5 -207.4 33.2 -222.7 0L0 0Z" fill="#a9415f"></path><path d="M0 148.5C-27.3 145.4 -54.6 142.3 -74.2 128.6C-93.9 114.9 -105.8 90.7 -116.9 67.5C-128 44.3 -138.3 22.2 -148.5 0L0 0Z" fill="#fb9138"></path><path d="M0 74.3C-13.7 72.7 -27.3 71.1 -37.1 64.3C-46.9 57.5 -52.9 45.3 -58.5 33.8C-64 22.2 -69.1 11.1 -74.2 0L0 0Z" fill="#facc15"></path></g><g transform="translate(0, 540)"><path d="M0 -297C59.1 -293.4 118.3 -289.8 148.5 -257.2C178.7 -224.7 180.1 -163.2 200.1 -115.5C220 -67.8 258.5 -33.9 297 0L0 0Z" fill="#2f213e"></path><path d="M0 -222.7C44.3 -220 88.7 -217.3 111.4 -192.9C134.1 -168.5 135.1 -122.4 150 -86.6C165 -50.9 193.9 -25.4 222.8 0L0 0Z" fill="#a9415f"></path><path d="M0 -148.5C29.6 -146.7 59.1 -144.9 74.2 -128.6C89.4 -112.3 90.1 -81.6 100 -57.8C110 -33.9 129.2 -17 148.5 0L0 0Z" fill="#fb9138"></path><path d="M0 -74.2C14.8 -73.3 29.6 -72.4 37.1 -64.3C44.7 -56.2 45 -40.8 50 -28.9C55 -17 64.6 -8.5 74.3 0L0 0Z" fill="#facc15"></path></g></svg>